# xmcd
#
# Track frame offsets:
#	150
#	25343
#	38613
#	64504
#	96640
#	123989
#	152106
#	184156
#	214518
#	216546
#	218783
# Disc length: 3248 seconds
# Revision: 1
# Processed by: cddbd v1.5.2PL0 Copyright (c) Steve Scherf et al.
#
# Submitted via: libkcddb 0.21
#
DISCID=a10cae0b
DTITLE=Orchestre Patengue - The heart of the forest
DYEAR=2002
DGENRE=Jungle
TTITLE0=Djo'oko
TTITLE1=Pleurs de la forêt
TTITLE2=Ikongo
TTITLE3=Sens interdit
TTITLE4=Ngombié
TTITLE5=Yifa mo
TTITLE6=Hélène
TTITLE7=Benoï
TTITLE8=Accapella forest I
TTITLE9=Accapella forest I (part 2)
TTITLE10=
EXTD=
EXTT0=
EXTT1=
EXTT2=
EXTT3=
EXTT4=
EXTT5=
EXTT6=
EXTT7=
EXTT8=
EXTT9=
EXTT10=
PLAYORDER=
